HIERARCHY
ROOT hip
{
  OFFSET 0 0 0
  CHANNELS 6 Xposition Yposition Zposition Zrotation Yrotation Xrotation
  JOINT abdomen
  {
    OFFSET 0 20.6881 -0.73152
    CHANNELS 3 Zrotation Xrotation Yrotation
    JOINT chest
    {
      OFFSET 0 11.7043 -0.48768
      CHANNELS 3 Zrotation Xrotation Yrotation
      JOINT neck
      {
        OFFSET 0 22.1894 -2.19456
        CHANNELS 3 Zrotation Xrotation Yrotation
        JOINT head
        {
          OFFSET -0.24384 7.07133 1.2192
          CHANNELS 3 Zrotation Xrotation Yrotation
          JOINT leftEye
          {
            OFFSET 4.14528 8.04674 8.04672
            CHANNELS 3 Zrotation Xrotation Yrotation
            End Site
            {
              OFFSET 1 0 0
            }
          }
          JOINT rightEye
          {
            OFFSET -3.6576 8.04674 8.04672
            CHANNELS 3 Zrotation Xrotation Yrotation
            End Site
            {
              OFFSET 1 0 0
            }
          }
        }
      }
      JOINT rCollar
      {
        OFFSET -2.68224 19.2634 -4.8768
        CHANNELS 3 Zrotation Xrotation Yrotation
        JOINT rShldr
        {
          OFFSET -8.77824 -1.95073 1.46304
          CHANNELS 3 Zrotation Xrotation Yrotation
          JOINT rForeArm
          {
            OFFSET -28.1742 -1.7115 0.48768
            CHANNELS 3 Zrotation Xrotation Yrotation
            JOINT rHand
            {
              OFFSET -22.5879 0.773209 7.07136
              CHANNELS 3 Zrotation Xrotation Yrotation
              JOINT rThumb1
              {
                OFFSET -1.2192 -0.487915 3.41376
                CHANNELS 3 Zrotation Xrotation Yrotation
                JOINT rThumb2
                {
                  OFFSET -3.37035 -0.52449 3.41376
                  CHANNELS 3 Zrotation Xrotation Yrotation
                  End Site
                  {
                    OFFSET -1.78271 -1.18214 1.43049
                  }
                }
              }
              JOINT rIndex1
              {
                OFFSET -7.75947 0.938293 5.60832
                CHANNELS 3 Zrotation Xrotation Yrotation
                JOINT rIndex2
                {
                  OFFSET -2.54057 -0.884171 1.56538
                  CHANNELS 3 Zrotation Xrotation Yrotation
                  End Site
                  {
                    OFFSET -1.62519 -0.234802 1.16502
                  }
                }
              }
              JOINT rMid1
              {
                OFFSET -8.24714 1.18213 3.41376
                CHANNELS 3 Zrotation Xrotation Yrotation
                JOINT rMid2
                {
                  OFFSET -3.10165 -0.590103 1.0647
                  CHANNELS 3 Zrotation Xrotation Yrotation
                  End Site
                  {
                    OFFSET -2.48547 -0.328903 0.83742
                  }
                }
              }
              JOINT rRing1
              {
                OFFSET -8.82822 0.546677 1.51678
                CHANNELS 3 Zrotation Xrotation Yrotation
                JOINT rRing2
                {
                  OFFSET -2.60934 -0.819778 -0.0198488
                  CHANNELS 3 Zrotation Xrotation Yrotation
                  End Site
                  {
                    OFFSET -2.33842 -0.294052 0.168128
                  }
                }
              }
              JOINT rPinky1
              {
                OFFSET -8.27202 -0.0477905 -0.4584
                CHANNELS 3 Zrotation Xrotation Yrotation
                JOINT rPinky2
                {
                  OFFSET -1.82734 -0.647385 -0.700984
                  CHANNELS 3 Zrotation Xrotation Yrotation
                  End Site
                  {
                    OFFSET -1.69225 -0.51767 -0.607171
                  }
                }
              }
            }
          }
        }
      }
      JOINT lCollar
      {
        OFFSET 2.68224 19.2634 -4.8768
        CHANNELS 3 Zrotation Xrotation Yrotation
        JOINT lShldr
        {
          OFFSET 8.77824 -1.95073 1.46304
          CHANNELS 3 Zrotation Xrotation Yrotation
          JOINT lForeArm
          {
            OFFSET 28.1742 -1.7115 0.48768
            CHANNELS 3 Zrotation Xrotation Yrotation
            JOINT lHand
            {
              OFFSET 22.5879 0.773209 7.07136
              CHANNELS 3 Zrotation Xrotation Yrotation
              JOINT lThumb1
              {
                OFFSET 1.2192 -0.487915 3.41376
                CHANNELS 3 Zrotation Xrotation Yrotation
                JOINT lThumb2
                {
                  OFFSET 3.37035 -0.52449 3.41376
                  CHANNELS 3 Zrotation Xrotation Yrotation
                  End Site
                  {
                    OFFSET 1.78271 -1.18214 1.43049
                  }
                }
              }
              JOINT lIndex1
              {
                OFFSET 7.75947 0.938293 5.60832
                CHANNELS 3 Zrotation Xrotation Yrotation
                JOINT lIndex2
                {
                  OFFSET 2.54057 -0.884171 1.56538
                  CHANNELS 3 Zrotation Xrotation Yrotation
                  End Site
                  {
                    OFFSET 1.62519 -0.234802 1.16502
                  }
                }
              }
              JOINT lMid1
              {
                OFFSET 8.24714 1.18213 3.41376
                CHANNELS 3 Zrotation Xrotation Yrotation
                JOINT lMid2
                {
                  OFFSET 3.10165 -0.590103 1.0647
                  CHANNELS 3 Zrotation Xrotation Yrotation
                  End Site
                  {
                    OFFSET 2.48547 -0.328903 0.83742
                  }
                }
              }
              JOINT lRing1
              {
                OFFSET 8.82822 0.546677 1.51678
                CHANNELS 3 Zrotation Xrotation Yrotation
                JOINT lRing2
                {
                  OFFSET 2.60934 -0.819778 -0.0198488
                  CHANNELS 3 Zrotation Xrotation Yrotation
                  End Site
                  {
                    OFFSET 2.33842 -0.294052 0.168128
                  }
                }
              }
              JOINT lPinky1
              {
                OFFSET 8.27202 -0.0477905 -0.4584
                CHANNELS 3 Zrotation Xrotation Yrotation
                JOINT lPinky2
                {
                  OFFSET 1.82734 -0.647385 -0.700984
                  CHANNELS 3 Zrotation Xrotation Yrotation
                  End Site
                  {
                    OFFSET 1.69225 -0.51767 -0.607171
                  }
                }
              }
            }
          }
        }
      }
    }
  }
  JOINT rButtock
  {
    OFFSET -8.77824 4.35084 1.2192
    CHANNELS 3 Zrotation Xrotation Yrotation
    JOINT rThigh
    {
      OFFSET 0 -1.70687 -2.19456
      CHANNELS 3 Zrotation Xrotation Yrotation
      JOINT rShin
      {
        OFFSET 0 -36.8199 0.73152
        CHANNELS 3 Zrotation Xrotation Yrotation
        JOINT rFoot
        {
          OFFSET 0.73152 -45.1104 -5.12064
          CHANNELS 3 Zrotation Xrotation Yrotation
          End Site
          {
            OFFSET -1.1221 -3.69964 12.103
          }
        }
      }
    }
  }
  JOINT lButtock
  {
    OFFSET 8.77824 4.35084 1.2192
    CHANNELS 3 Zrotation Xrotation Yrotation
    JOINT lThigh
    {
      OFFSET 0 -1.70687 -2.19456
      CHANNELS 3 Zrotation Xrotation Yrotation
      JOINT lShin
      {
        OFFSET 0 -36.8199 0.73152
        CHANNELS 3 Zrotation Xrotation Yrotation
        JOINT lFoot
        {
          OFFSET -0.73152 -45.1104 -5.12064
          CHANNELS 3 Zrotation Xrotation Yrotation
          End Site
          {
            OFFSET 1.1221 -3.69964 12.103
          }
        }
      }
    }
  }
}
MOTION
Frames:	9
Frame Time:	0.00833333
-17.5811 55.95099999999999 233.41399999999996 0.0 -0.0 0.0 -0.0 -0.0 -0.0 0.0 0.0 -0.0 7.77234 18.013368 156.222461 0.013528 19.567436 -157.458586 -0.0 0.0 -0.0 -0.0 0.0 -0.0 -142.973735 39.431617 147.390037 -151.979553 -2.326003 170.955065 -172.085074 -7.728783 146.217179 162.138037 -36.4898 139.30245 -162.891538 -0.575714 89.353363 -100.023245 8.256166 42.802587 -46.208543 39.652969 36.318179 -67.420155 57.74042 41.939517 -10.975806 25.789868 7.640203 -42.522609 59.335917 33.616162 -145.119466 0.267775 -179.212461 -144.177805 72.099556 169.680989 -1.203484 -3.047547 -1.116064 61.833305 86.146046 -25.874048 159.220516 -48.028485 -170.415257 -1.798516 18.086937 -22.906726 -27.041389 -83.225466 11.099927 -170.742163 -16.280801 -143.906459 -88.928376 -50.831327 -37.599672 13.495635 -56.999258 35.78808 -0.184726 -0.300416 0.104009 -92.810959 -61.179321 -49.897855 0.057679 0.167876 -0.032027 166.852355 -5.837018 -143.442867 0.000142 -0.01849 0.005809 85.442129 78.75557 -88.512252 -9.96654 32.461829 -8.6263 27.637514 -40.123582 26.230966 -180.0 75.749642 -0.0 -180.0 73.473292 -180.0 -5.864878 -4.414665 -123.647879 5.828746 -19.599706 -62.934765 -180.0 75.749642 -0.0 -180.0 73.473292 -180.0 7.26445 -6.891104 98.805537 78.037268 -74.275227 174.254323
-17.5559 55.9614 233.41399999999996 0.0 -0.0 0.0 -0.0 -0.0 -0.0 0.0 0.0 -0.0 7.77234 18.013368 156.222461 0.013528 19.567436 -157.458586 -0.0 0.0 -0.0 -0.0 0.0 -0.0 -142.973735 39.431617 147.390037 -151.979553 -2.326003 170.955065 -172.085074 -7.728783 146.217179 162.138037 -36.4898 139.30245 -12.305351 11.515048 3.094697 -13.21462 11.804967 17.817825 -90.225558 41.072425 75.796697 -171.901227 -34.044689 123.885167 173.123457 -66.297779 137.614274 3.416429 2.512565 3.356784 -145.119208 0.226618 -179.199532 -65.577669 -77.936664 -97.432456 -157.329919 57.246404 -150.511839 -103.4557 -44.898742 -102.761276 159.220516 -48.028485 -170.415257 -1.798516 18.086937 -22.906726 -27.041389 -83.225466 11.099927 -170.742163 -16.280801 -143.906459 -88.928376 -50.831327 -37.599672 13.495635 -56.999258 35.78808 -0.184726 -0.300416 0.104009 -92.810959 -61.179321 -49.897855 0.057679 0.167876 -0.032027 166.852355 -5.837018 -143.442867 0.000142 -0.01849 0.005809 85.442129 78.75557 -88.512252 -9.96654 32.461829 -8.6263 27.637514 -40.123582 26.230966 -180.0 75.749642 -0.0 -180.0 73.473292 -180.0 -5.864878 -4.414665 -123.647879 5.828746 -19.599706 -62.934765 -180.0 75.749642 -0.0 -180.0 73.473292 -180.0 7.26445 -6.891104 98.805537 78.037268 -74.275227 174.254323
-17.5317 55.9701 233.42200000000003 0.0 -0.0 0.0 -0.0 -0.0 -0.0 0.0 0.0 -0.0 7.77234 18.013368 156.222461 0.013528 19.567436 -157.458586 -0.0 0.0 -0.0 -0.0 0.0 -0.0 -142.973735 39.431617 147.390037 -151.979485 -2.325519 170.955038 171.403303 -46.721131 136.743824 176.903092 2.637928 145.304856 -2.925532 2.862225 0.520678 11.757088 -15.366817 -6.887805 37.215945 -57.917763 -0.643014 -155.914906 -7.478451 104.204014 -82.840589 61.110826 74.532293 -7.310397 30.15101 4.060639 0.000474 0.063839 0.020056 -166.762967 -45.819373 177.40413 -141.577643 1.570229 -138.572663 -159.075599 56.243957 -147.663949 159.220516 -48.028485 -170.415257 -1.798516 18.086937 -22.906726 -27.041389 -83.225466 11.099927 -170.742163 -16.280801 -143.906459 -88.928376 -50.831327 -37.599672 13.495635 -56.999258 35.78808 -0.184726 -0.300416 0.104009 178.456679 -20.791311 -108.946727 0.057679 0.167876 -0.032027 166.852355 -5.837018 -143.442867 0.000142 -0.01849 0.005809 85.442129 78.75557 -88.512252 -9.96654 32.461829 -8.6263 27.637514 -40.123582 26.230966 -180.0 75.749642 -0.0 -180.0 73.473292 -180.0 -5.864878 -4.414665 -123.647879 5.828746 -19.599706 -62.934765 -180.0 75.749642 -0.0 -180.0 73.473292 -180.0 7.26445 -6.891104 98.805537 78.037268 -74.275227 174.254323
-17.5322 55.973600000000005 233.411 0.0 -0.0 0.0 -0.0 -0.0 -0.0 0.0 0.0 -0.0 7.77234 18.013368 156.222461 0.013528 19.567436 -157.458586 -0.0 0.0 -0.0 -0.0 0.0 -0.0 -142.973735 39.431617 147.390037 -152.876061 -8.760784 171.26332 0.191137 35.725265 2.116926 -1.448921 4.640199 -0.100176 51.059793 -41.203951 12.856726 -3.944815 -59.601545 -39.285397 10.211155 -18.05077 -4.56389 88.352422 -57.62592 44.252321 -160.673322 -6.667841 143.245105 -1.828693 21.23857 4.732194 0.000474 0.063775 0.020036 -161.798201 31.977804 166.529683 -86.000836 -50.498128 -84.371009 -144.743963 7.190148 -143.981734 159.220516 -48.028485 -170.415257 -1.798516 18.086937 -22.906726 175.661097 79.319428 -178.792502 4.440974 14.093458 -0.064268 -87.247882 -50.68899 -36.415345 137.666694 17.505217 -101.07333 173.659579 -52.758388 -119.868112 19.252224 43.682795 -21.371893 0.057679 0.167876 -0.032027 -142.84339 -74.309707 -114.189089 145.099706 -1.521107 178.650165 -22.267195 31.38233 5.112412 -25.916531 79.094076 -10.831563 166.895197 58.289733 143.961062 -180.0 75.749642 -0.0 -180.0 73.473292 -180.0 -5.864878 -4.414665 -123.647879 5.828746 -19.599706 -62.934765 -180.0 75.749642 -0.0 -180.0 73.473292 -180.0 7.26445 -6.891104 98.805537 78.037268 -74.275227 174.254323
-17.589 55.9569 233.403 0.0 -0.0 0.0 -0.0 -0.0 -0.0 0.0 0.0 -0.0 7.77234 18.013368 156.222461 0.013528 19.567436 -157.458586 -0.0 -0.0 0.0 -0.0 -0.0 0.0 -153.578749 7.463415 159.321023 -152.257752 2.486942 163.634451 -103.132619 72.963019 88.61612 52.173951 -66.632449 38.598751 66.257853 -46.842795 22.116955 -101.02251 37.426202 69.040627 -157.327488 -28.217551 122.490444 29.05023 -12.562876 -10.051872 -0.057679 0.167876 0.032027 -174.138937 -28.057222 144.235048 -72.96523 -72.143029 -89.99016 76.634179 -86.714553 50.807016 1.134951 3.04054 1.043633 -150.307065 13.019817 -143.850089 157.797051 -22.115459 -165.467367 -8.698466 16.805924 -20.923339 -9.073418 -50.425945 29.657868 -171.93531 -12.828821 -144.3254 176.927678 -14.532472 -89.65859 44.430908 -17.37889 -4.709105 -2.325555 -3.867927 1.259147 -92.977985 -60.469719 -49.689136 8.41658 20.880424 -5.645309 -40.327531 -72.000361 -17.097124 0.021291 -1.725169 0.542387 161.321374 32.516674 -166.003037 125.807905 -27.87746 123.551547 -5.553791 1.766507 -0.705175 -180.0 75.749642 -0.0 -180.0 73.473292 -180.0 5.025459 -5.947284 123.870029 -1.319393 -7.283167 59.66918 -180.0 75.749642 -0.0 -180.0 73.473292 -180.0 5.864878 -4.414665 123.647879 -10.335123 -30.278116 64.516666
-17.5376 55.9652 233.397 0.0 -0.0 0.0 -0.0 -0.0 -0.0 0.0 0.0 -0.0 10.034043 15.923643 138.388627 -2.970543 18.523473 -139.311015 0.0 -0.0 -0.0 0.0 -0.0 -0.0 -142.586389 40.121077 146.977594 22.082363 -5.558969 6.731841 86.081843 75.372215 -110.417401 -172.115471 34.162281 142.80731 -166.631339 -4.304864 89.77151 121.773742 -56.863525 86.234932 12.216524 -21.784719 -5.120188 -78.408686 44.340977 54.703299 6.908911 -21.623998 -2.809719 -157.638031 17.693665 138.031943 -0.021291 -1.725169 -0.542387 0.888125 -11.319478 -1.030715 -14.102891 -26.511289 -13.432208 -129.185114 -31.952209 -126.514137 159.220516 -48.028485 -170.415257 164.503651 -3.538009 -157.712414 -166.076675 1.147089 -154.361199 166.393301 45.382008 -139.522083 -114.538671 -50.245352 -55.721798 132.439572 25.425599 -87.694533 -2.325555 -3.867927 1.259147 -179.647823 -23.360215 -107.803936 0.571049 1.648356 -0.322148 175.070864 -30.844877 -144.212674 145.119465 0.267731 179.212447 -21.064382 6.459741 8.268335 -6.227694 18.789635 -5.573717 6.175027 -13.674929 5.949129 -180.0 75.749642 -0.0 -180.0 73.473292 -180.0 5.025459 -5.947284 123.870029 -1.319393 -7.283167 59.66918 -180.0 75.749642 -0.0 -180.0 73.473292 -180.0 5.864878 -4.414665 123.647879 -10.335123 -30.278116 64.516666
-17.4883 55.9835 233.404 0.0 -0.0 0.0 -0.0 -0.0 -0.0 0.0 0.0 -0.0 7.77234 18.013368 156.222461 0.013528 19.567436 -157.458586 -0.0 -0.0 0.0 -0.0 -0.0 0.0 -153.578749 7.463415 159.321023 75.736149 -75.382541 52.735972 -16.355224 -79.053396 -20.744233 1.284702 -4.078964 0.185509 71.831195 -48.263725 25.791675 -14.185033 -32.13274 -27.166272 -4.706866 7.223928 2.854949 -178.411012 -20.670638 110.671782 -160.826363 -7.141801 143.31627 -15.400277 42.585698 15.157632 -0.014868 -1.323148 -0.415899 -33.034779 72.283666 35.863677 -80.939074 -51.227554 -79.359772 0.570322 -8.496623 -1.340377 157.797051 -22.115459 -165.467367 -8.698466 16.805924 -20.923339 -9.073418 -50.425945 29.657868 -171.93531 -12.828821 -144.3254 85.829417 38.630721 -47.955432 133.323724 -22.213348 -79.730087 -60.461659 -70.523647 -15.71111 25.630732 35.668073 -25.069072 36.036059 51.723116 -29.832321 167.81997 -16.778355 -146.888827 72.350995 72.974965 -90.218005 7.275597 -42.53191 25.718578 145.397571 12.779135 142.020996 150.992791 30.163971 145.180173 -180.0 75.749642 -0.0 -180.0 73.473292 -180.0 5.025459 -5.947284 123.870029 -1.319393 -7.283167 59.66918 -180.0 75.749642 -0.0 -180.0 73.473292 -180.0 5.864878 -4.414665 123.647879 -10.335123 -30.278116 64.516666
-17.5213 55.99079999999999 233.409 0.0 -0.0 0.0 -0.0 -4.771896 -180.0 0.0 -4.771896 -180.0 10.653412 15.037204 132.142383 -3.918791 17.948196 -132.93335 -0.0 0.0 -0.0 -0.0 0.0 -0.0 3.542039 -62.05305 -13.039183 -179.033765 -14.577156 165.893241 110.618214 72.610325 -132.607617 -165.659392 46.564268 139.036425 -2.925532 2.862225 0.520678 -66.521341 26.738622 61.555475 12.216524 -21.784719 -5.120188 2.2519 1.394956 3.870997 23.903801 -61.333833 1.399383 19.004491 -41.694568 3.698872 -72.757246 -72.143382 -89.772159 76.676064 -86.710247 50.861021 -5.648164 -12.860949 -5.301603 -87.741431 -54.429506 -85.160991 33.837732 -85.66573 55.255002 1.946732 6.306312 -17.604482 164.075313 -6.564674 -153.444759 -128.760344 -65.176789 -111.148199 -1.590029 -1.575931 0.222909 -4.694185 -6.967375 4.934213 77.667448 43.02965 -64.538509 -178.777673 -46.604393 -119.866487 0.057679 0.167876 -0.032027 44.505175 58.240571 -35.366439 0.014868 -1.323148 0.415899 -1.297451 -21.756571 2.289784 143.937873 8.265083 140.720099 159.654016 56.283465 147.079843 -180.0 75.749642 -0.0 -180.0 73.473292 -180.0 5.025459 -5.947284 123.870029 -1.319393 -7.283167 59.66918 -180.0 75.749642 -0.0 -180.0 73.473292 -180.0 5.864878 -4.414665 123.647879 -10.335123 -30.278116 64.516666
-17.4836 56.04359999999999 233.404 0.0 -0.0 0.0 -0.0 -0.0 -0.0 0.0 0.0 -0.0 10.034043 15.923643 138.388627 -2.970543 18.523473 -139.311015 0.0 -0.0 -0.0 0.0 -0.0 -0.0 -142.586389 40.121077 146.977594 22.082363 -5.558969 6.731841 86.081843 75.372215 -110.417401 -172.115471 34.162281 142.80731 -166.631339 -4.304864 89.77151 121.773742 -56.863525 86.234932 12.216524 -21.784719 -5.120188 -78.408686 44.340977 54.703299 6.908911 -21.623998 -2.809719 -157.638031 17.693665 138.031943 -0.021291 -1.725169 -0.542387 0.888125 -11.319478 -1.030715 -14.102891 -26.511289 -13.432208 -129.185114 -31.952209 -126.514137 159.220516 -48.028485 -170.415257 164.503651 -3.538009 -157.712414 -166.076675 1.147089 -154.361199 166.393301 45.382008 -139.522083 -114.538671 -50.245352 -55.721798 132.439572 25.425599 -87.694533 -2.325555 -3.867927 1.259147 -179.647823 -23.360215 -107.803936 0.571049 1.648356 -0.322148 175.070864 -30.844877 -144.212674 145.119465 0.267731 179.212447 -21.064382 6.459741 8.268335 -6.227694 18.789635 -5.573717 6.175027 -13.674929 5.949129 -180.0 75.749642 -0.0 -180.0 73.473292 -180.0 5.025459 -5.947284 123.870029 -1.319393 -7.283167 59.66918 -180.0 75.749642 -0.0 -180.0 73.473292 -180.0 5.864878 -4.414665 123.647879 -10.335123 -30.278116 64.516666
